<?xml version="1.0" encoding="utf-8"?>
<!-- Generator: Adobe Illustrator 16.0.0, SVG Export Plug-In . SVG Version: 6.00 Build 0)  -->
<!DOCTYPE svg PUBLIC "-//W3C//DTD SVG 1.1//EN" "http://www.w3.org/Graphics/SVG/1.1/DTD/svg11.dtd">
<svg version="1.1" id="Capa_1" xmlns="http://www.w3.org/2000/svg" xmlns:xlink="http://www.w3.org/1999/xlink" x="0px" y="0px"
	 width="506.974px" height="373.481px" viewBox="0 0 506.974 373.481" enable-background="new 0 0 506.974 373.481"
	 xml:space="preserve">
<path opacity="0.7" fill="#6B6B6B" d="M196.053,350.234c0,0,1.167-6.833-0.833-9.333s-2.167-8-1.833-9.167s0.167-1.001,0.667-2.667
	s-4.833-8.332-4-13.166s2.167-9,1.5-12s0.501-10.17,1.5-11.335s60,3.335,60,3.335l46.667-9.334l17.333,3.667
	c0,0,0.333,7.834-0.667,10.167s0.5,6.166-4.667,8.166s-2.667,8.167-3.333,12.167s-2.333,6.334-6.667,8.667s-4.834,5-6.667,8.333
	s-6.5,10.667-6.5,10.667L196.053,350.234z"/>
<path fill="#FFFFFF" stroke="#000000" stroke-miterlimit="10" d="M256.386,94.9c0,0-14.5,0.5-22.75,1.75s-21.319,3.44-26.917,7.75
	c-3.146,2.422-6.083,8.25-9.333,12s-15.5,13.25-15.5,13.25s-10.75,8.5-14.5,14s-16.333,10.583-19.167,18.917
	c0,0,10.5,18.501,20.167,19.667s13.667,3.333,15.167,4.333c0,0,2-4.166,4.667-8.333s7-9.168,10.5-10.834s9.833-5.667,9.833-5.667
	s2.667,6.834,3.5,8.5s-0.167,9.5-2.667,14.833s2,14.166,2.5,16.333s4.167,8.334,2.833,13.167s-4.667,4.333-3.833,14
	s-5.794,8.888-8.167,23.833c-0.833,5.251-2.5,2.417-3.333,6.417s-0.833,10.25-0.833,10.25s-3,3.166-1.667,7.666
	s-1.947,7.926-3.333,13.167c-0.188,0.709-0.5,2.666-0.5,2.666s6.555,5.893,27.667,7.5c14.25,1.085,33.833,0,36.667-1
	c6.327-2.232,13.188-6.229,21.167-7.5c6.145-0.979,20.838-2.197,32.167-1.166c1.833,0.167,7,1,7,1s2.333-10.5-0.167-12.5
	c0,0,6.166-4.833,3.833-13.833s-9.375-13.917-9.375-13.917l0.625-25c0,0,4.5-6.875,4.875-13.75s4-14.25,7.5-19.5
	s13.125-24,13.125-24s3.712,4.486,7.563,9.188c2.905,3.547,5.388,7.332,9.244,8.752c2.881,1.061,5.013,3.66,6.568,3.561
	c5.875-0.375,26.625-14.5,26.625-14.5s-0.75-5.75-7.75-6.75l-15.875-17.5c0,0,2.625-5.75-0.5-9.5s-11.125-14.583-11.125-14.583
	s-4.375-7.167-5.25-9.417s-3.625-4.75-10.75-8.125s-12.781-5.845-17.25-7.542c-3.311-1.257-13.625-4.583-13.625-4.583
	s-3.5,8.625-4.875,10.375s-2.75,1.75-2.75,1.75s-0.833,13.375-26.125,17.875c-4.625-1.917-14.25-8.792-16.125-12.917
	S251.261,99.025,256.386,94.9z"/>
<path fill="#49869D" d="M232.22,300.401c0,0-0.833-11,1.833-14s-1.667-13.501,3-17.334s0.667-17,5.5-21s6.833-27.166,6.833-27.166
	s2.5-18.667,4.167-20.5s5.667-35,5.667-35l3.917-37.334l8.875,5.083l9.25-3.875l-7.042,53.959c0,0-7.125,25.458-7.458,31.791
	s-1.5,21.625-5,23.5c-3.016,1.616-2.875,4.875-3.208,10.792c-0.342,6.073-6,11.251-6.333,20.084s-5,6.499-5,12.166
	s-0.5,18.667-0.5,18.667L232.22,300.401z"/>
<path d="M300.886,102.273c-0.079,0.075-0.152,0.157-0.236,0.223c-0.352,0.278-0.7,0.56-1.06,0.825
	c-0.682,0.543-1.45,0.939-2.309,1.18c-0.576,0.078-1.152,0.155-1.728,0.232c-0.885,0-1.754-0.186-2.557-0.53
	c-0.504,0.06-1.012,0.116-1.522,0.17c-3.083,0.332-6.524,1.205-10.039,0.676c-3.465-0.521-6.545-2.033-9.497-3.871
	c-2.551-1.589-3.336-4.06-2.972-6.367c-3.525-0.198-6.196-0.315-7.206-0.287c-4.5,0.125-12.125,0.625-12.125,0.625
	s-3.875,13.625,3,23s19.375,15,19.375,15s17.875-5.625,22.375-9.375s7.125-12.5,7.5-15.5c0.204-1.632,0.703-4.775,1.117-7.307
	C302.351,101.49,301.636,101.909,300.886,102.273z"/>
<path fill="#B7B7B7" d="M267.274,88.347c-1.007-1.753-1.115-3.462-0.648-4.947h-8.74c0,0,0.667,7.125,0.292,11
	c-0.917,0.125-2.589,0.036-3.042,0.917c-3.25,6.333-0.677,15.042,0.917,19.25c3,7.917,16.208,13.333,16.208,13.333
	s16.208-3,22.542-10.417c3.185-3.729,4.147-7.018,4.312-9.381C285.377,106.826,274.325,100.62,267.274,88.347z"/>
<path fill="#A5A5A5" d="M274.386,124.65c18.75-2.75,22.22-12.431,24.303-16.597c-13.539-1.365-24.438-7.562-31.416-19.706
	c-1.007-1.753-1.115-3.462-0.648-4.947h-8.74c0,0,0.667,7.125,0.292,11c-0.133,0.018-0.285,0.032-0.443,0.044
	C255.886,98.525,251.386,108.025,274.386,124.65z"/>
<path fill="#B7B7B7" d="M148.22,162.566c0,0-10.5-1.167-27.5,9.333s-34.667,10.833-40.333,11.5s-12.938-2.167-17.438-4
	s-10.66-3.703-12-4.188c-2.25-0.813-7.625-6.188-8.5-4.438s-1.625,6.125,4.938,10.25c0,0-10.649-0.623-15.563-0.188
	c-4.938,0.438-11.604-0.104-11.354,2.646c0.208,2.296,3.625,3.583,9,3.583s13.792,1.833,14.417,2.208s-10.389,2.061-15.667,2.876
	c-5.125,0.792-11.792,2.042-11.5,5.25c0.315,3.465,8.792,2.374,14.542,1.124s11.208-0.874,11.208-0.874s-11.208,3.874-14.708,4.624
	s-7.091,2.129-6.063,3.938c2.063,3.625,18.688-1.75,23.75-1.75c-2.563,2.875-16.75,5.438-16.188,8c0.552,2.514,6.75,2.167,14.75-0.5
	s15.625-2.063,22.625-3.729s11.182-4.217,18.417-4.75c7.917-0.583,39.229-4.547,43.583-5.708c5.625-1.5,33.75-7.125,38.25-15.375
	C166.886,182.4,151.303,168.483,148.22,162.566z"/>
<path fill="#A5A5A5" d="M148.22,162.566c0,0,9.167,15,4.417,20.333c-11.641,13.069-55.667,17-73.333,17.25
	c-5.25,3.667-14.375,7.667-18.281,9.022c1.911-0.225,3.784-0.504,5.614-0.939c7-1.667,11.182-4.217,18.417-4.75
	c7.917-0.583,39.229-4.547,43.583-5.708c5.625-1.5,33.75-7.125,38.25-15.375C166.886,182.4,151.303,168.483,148.22,162.566z"/>
<path d="M338.47,169.234c0,0,14.542-22.459,25.292-17.459s16.625,17.375,16.625,17.375s-8.709,0.301-21.917,13.667
	c-5.146,5.208-4.489,3.794-5.667,2.75C348.949,182.15,338.47,169.234,338.47,169.234z"/>
<path fill="#B7B7B7" d="M262.261,66.525c0,0-8.688-6.188-9.063,3.813s4.462,15.64,8.896,14.854c3.292-0.583,3.125-0.792,3.125-0.792
	s-1,6.167,2.5,10.167s9.216,11.219,13.167,13c5.917,2.667,14.032,3.142,17.375,1.833c2.875-1.125,6.176-7.948,6.813-10.25
	c0.813-2.938,1.625-6.75,2.375-8.625c0.749-1.872,4.13-8.54,2.688-18.875c-0.375-2.688,0-3.375,0.625-5s0.375-4.875-1-7.5
	s-3.875-12.625-3.875-12.625L290.761,42.4l-19.5,0.75L262.261,66.525z"/>
<path d="M151.324,157.837c0,0,6.093,10.193,12.896,14.979c2.25,1.583,5.667,4.166,10.583,4.666
	c4.166,0.424,9.667,1.834,11.833,2.667l-3.5,6.167c0,0-7.083-3.751-13.667-3.834s-11.667-7.249-14.333-9.916s-7-10.5-7-10.5
	L151.324,157.837z"/>
<path fill="#B7B7B7" d="M362.386,190.568c0,0,9.167,6.667,12.5,10.5s15,13.832,25.833,17.166s32.167,9.5,32.167,9.5
	s3.105,5,10.167,7.5c2,0.708,6.666,3.999,11.667,4.334c2.581,0.173,7.207,7.707,10.082,9.707c2.516,1.75,3.42-1.374,2.209-3.813
	c-1.417-2.854-7.208-10.229-7.208-10.229s9.052,4.914,12.083,6.854c2.375,1.521,8.042,0.063,3-4.063
	c-5.013-4.101-9.375-6.688-9.375-6.688s6.734,2.307,8.938,3.188c1.771,0.708,6.979-1.792,1.875-5.063
	c-6.641-4.255-11.823-5.694-13.854-6.604c-1.208-0.541-3.099-1.902-0.396-2.146c3.708-0.333,8.229,1.021,10.979,1.313
	c3.99,0.424,4.208-3.875-2.292-6s-21.688-4.125-21.688-4.125s-4.943-0.819-2.563-2.688c4.063-3.188,4.955-12.03,0.875-10.313
	c-3.563,1.5-5.956,7.145-10.5,9.25c-2.563,1.188-11.25-3.938-17.25-8.938s-16.202-15.158-24.563-18.25
	c-4.563-1.688-6.938-5.063-6.938-5.063L362.386,190.568z"/>
<path fill="#A5A5A5" d="M377.178,192.442c-2.125-1.959-2.896-5.104-2.958-8.042l-11.833,6.168c0,0,9.167,6.667,12.5,10.5
	s15,13.832,25.833,17.166s26.5,8.042,32.167,9.5C391.386,205.775,383.261,202.9,377.178,192.442z"/>
<path d="M253.544,69.33c-0.158-0.43-0.132-0.533,0.187-0.123c-0.209-0.753-0.125-0.995,0.511-0.61
	c-0.405-0.939-0.259-1.253,0.321-1.611c-0.219-0.275-0.004-0.595,0.247-0.885c1.255-1.449,3.423-2.147,6.826,2.049
	c1.25,1.542,4,3.083,4.875,4.625c0.523,0.922,2.208,1.208,2.5,0.25c1.007-3.311,0.167-7.958,4.042-10.708s1.835-7.806,2-9.75
	c0.279-3.305,3.208-6.354,5.708-7.104c0.417-0.125,0.856-0.17,1.132-0.132c0.625-0.014,1.086,0.056,1.573,1.005
	c0.434-0.74,0.893-0.6,2.382-0.806c-0.598,0.513-0.166,0.68,0.869,0.477c-0.219,0.518,0.163,0.667,0.855,0.55
	c-0.002,0.351,0.305,0.437,0.635,0.369c0.34,0.153,0.73,0.19,1.102,0.215s0.725,0.037,0.932,0.304
	c0.467-0.263,0.789-0.271,1.194,0.183c0.134-0.482,0.358-0.499,0.479-0.287c0.308-0.25,0.513-0.271,0.719-0.497
	c0.206,0.172,0.414,0.141,0.942-0.115c-0.194,0.332-0.066,0.439,0.125,0.604c0.083-0.126,0.267-0.273,0.541-0.646
	c0.104,0.122,0.299,0.019,0.549-0.161c0.22-0.062,0.496-0.2,0.848-0.397c-0.322,0.46,0.044,0.4,0.668,0.017
	c0.121,0.288,0.5,0.252,0.911,0.204c0.191,0.008,0.389,0.014,0.552,0.067c0.248-0.04,0.46-0.031,0.585,0.197
	c0.677-0.17,1.237-0.122,1.645,0.673c0.666-0.677,1.178-0.607,2.309-0.889c-0.159,0.448,0.302,0.545,0.908,0.43
	c0.258,0.344,0.663,0.476,1.128,0.486c0.285,0.296,0.63,0.469,1.06,0.495c0.199,0.37,0.482,0.592,1.034,0.567
	c-0.192-0.218-0.109-0.701-0.052-1.171c0.287-2.355-0.064-4.428-0.834-6.241c-0.154-0.363-0.324-0.715-0.551-0.782
	c-0.145-0.617-0.345-0.948-0.521-1.459c-0.16,0.005-0.287-0.175-0.366-0.503c-0.169,0.044-0.292-0.058-0.356-0.2
	c-0.211-0.2-0.366-0.439-0.561-0.631c-0.196-0.192-0.433-0.335-0.762-0.459c0.052-0.386-0.264-0.689-0.624-1.016
	c-0.126-0.111-0.291-0.254-0.457-0.392s-0.333-0.271-0.501-0.396c-0.345-0.282-0.693-0.538-0.514-0.229
	c-0.883-0.795-1.238-1.027-1.614-1.721c-0.339,0.254-0.698,0.046-1.056-0.151c-0.385-0.212-0.77-0.412-1.111-0.505
	c-0.418-0.28-0.794-0.454-0.633-0.049c-0.896-0.728-1.255-0.876-1.853-1.376c-0.101,0.226-0.438,0.101-0.858-0.063
	c-0.065-0.007-0.224-0.061-0.354-0.064c-0.13-0.004-0.233,0.042-0.285,0.185c-0.559-0.491-0.928-0.603-1.276-0.117
	c-0.194-0.353-0.383-0.556-0.33-0.476c-0.423-0.221-0.603-0.157-0.375,0.285c-0.595-0.546-0.781-0.714-1.294-1.596
	c0.145,0.729-0.039,0.744-0.762,0.616c0.359,0.03,0.178-0.083-0.168-0.229c-0.062,0.013-0.289-0.006-0.563,0.004
	c-0.176-0.204-0.537-0.292-0.724-0.457c-0.531-0.004-0.889-0.085-1.474-0.247c0.014,0.039-0.2-0.006-0.412-0.049
	s-0.422-0.083-0.628-0.121c-0.435-0.085-0.857-0.159-0.511,0.086c-1.187-0.379-1.605-0.439-2.117-0.792
	c-0.32,0.247-0.734,0.201-0.921-0.364c-0.637,0.489-1.047,0.458-1.466-0.013c-0.396,0.428-0.801,0.415-1.166,0.014
	c-0.26,0.393-0.48,0.393-0.812,0.182c-0.106,0.22-0.322,0.229-0.573,0.218c-0.187,0.028-0.407,0.035-0.601,0.082
	c-0.193,0.046-0.36,0.132-0.471,0.291c-0.319-0.119-0.584-0.165-0.189-0.082c-0.695-0.001-0.73,0.127-0.198,0.556
	c-0.768-0.31-1.067-0.375,0.188-0.568c-1.771,0.145-1.988,0.16-1.513-1.49c-0.903,1.749-1.114,1.834-1.639,0.916
	c0.335,0.929,0.311,0.89-0.093,0.092c0.193,0.801,0.007,0.844-0.511,0.632c0.485,0.213,0.393,0.227-0.056,0.063
	c0.038,0.282-0.281,0.386-0.182,0.274c-0.166,0.217-0.376,0.281-0.391,0.298c-0.015,0.017,0.165-0.014,0.369-0.249
	c-0.199,0.248-0.507,0.334-0.762,0.337c-0.511,0.006-0.813-0.32-1.33-1.378c0.415,1.843,0.346,2.04-0.603,1.622
	c0.594,0.575,0.306,0.535-0.071,0.579c-0.14,0.074-0.37,0.232-0.671,0.476c-0.017-0.092-0.105-0.098-0.229-0.061
	c-0.125,0.038-0.285,0.118-0.167-0.039c-0.438,0.322-0.599,0.406-0.283-0.451c-0.559,1.005-0.641,1.068-0.468-0.354
	c-0.495,1.599-0.736,1.713-2.028,1.339c1.188,0.529,1.325,0.572,0.834-1.353c0.406,2.057,0.019,2.175-0.473,2.312
	c-0.122,0.003-0.347,0.027-0.542-0.023s-0.36-0.172-0.547-0.394c-0.171,1.123-0.536,1.36-1.316,1.673
	c0.058,0.176-0.301,0.428-0.657,0.686c-2.843,2.067-5.456,4.571-7.29,7.378c-0.252,0.386-0.489,0.778-1.033,0.743
	c0.05,0.415,0.024,0.723,0.156,0.655c-0.12,0.21-0.221,0.378-0.332,0.554c-0.117,0.186-0.241,0.378-0.199-0.021
	c-0.373,0.917-0.578,1.243-1.718,2.308c1.184-1.083,1.346-1.278,1.75-2.273c-0.255,1.044-0.269,1.288,0.051,2.473
	c-0.354-1.234-0.434-1.026-0.601,0.151c0.016-0.761-0.054-0.551-0.22,0.042c0.034-0.17-0.027,0.042-0.083,0.255
	c-0.09,0.344-0.167,0.734-0.231,1.163s-0.118,0.896-0.119,1.041c-0.083,0.854-0.115,1.384-0.029,2.585
	c-0.131-0.09-0.144,0.49-0.708,2.349c0.554-0.663,0.557-0.048,0.564,0.606c0.006,0.299,0.013,0.607,0.021,0.92
	c0.008,0.314,0.018,0.633-0.165,0.348c0.204,0.924,0.216,1.245-0.775,2.388c1.012-0.513,1.02-0.205,0.986,0.363
	c0.065,0.072,0.088,0.403,0.055,0.754c-0.034,0.351-0.123,0.723-0.32,1.149c0.47,0.397,0.511,1.012-0.073,1.883
	c0.669,0.321,0.713,0.899,0.683,1.583c0.118,0.424,0.162,0.953,0.206,1.449c0.054,0.621,0.106,1.192-0.007,1.372
	c0.209,0.835,0.253,1.278,0.038,3.297c0.291-1.287,0.321-0.999,0.556-0.103C253.375,68.794,253.386,68.9,253.544,69.33z"/>
<g>
	<path d="M277.511,28.525l7.938-3.438l-0.531,2.781l6.563-0.063l-3.375,1.563l4.289,1.398l0.496-4.871l2.998,5.752l5.249,2.001
		l2.5-4.75l0.375,8l3.375-3v5.5l7.5-2.5l-4.625,5.25l4.813,5.25l-5.469-3.5l1.573,2.542l-4.917-0.542c0,0,2.466,3.422,1.417,3
		c-3.833-1.542-7.792-2.542-10.708-2.458c-2.016,0.058-7.206-1.878-5.625-0.625c2.51,1.99,3.042,3.458,3.042,3.458
		s-5.719-1.969-7.938-2.813C281.776,44.686,277.511,28.525,277.511,28.525z"/>
</g>
<g>
	<path d="M259.264,34.537c-0.546,0.062-0.585,0.249-0.086,0.414c0.499,0.165,0.522,0.532,0.051,0.815l-2.486,1.494
		c-0.471,0.283-0.491,0.656-0.044,0.828s0.442,0.568-0.011,0.88l-0.913,0.629c-0.453,0.312-1.205,0.806-1.671,1.099l-0.488,0.306
		c-0.466,0.292-0.397,0.542,0.153,0.554l1.769,0.04c0.55,0.012,1.32-0.294,1.711-0.68l5.165-5.093
		c0.392-0.386,0.582-1.133,0.423-1.66l-0.408-1.354c-0.159-0.527-0.409-0.524-0.556,0.006l-0.141,0.509
		c-0.147,0.53-0.715,1.015-1.261,1.077L259.264,34.537z"/>
</g>
<g>
	<path d="M254.303,199.417l1.291-22.944l-4.651,0.961l0.205-3.639c2.972-0.809,4.94-1.73,5.906-2.767l3.724,0.21l-1.601,28.453
		L254.303,199.417z"/>
	<path d="M275.402,198.727c-1.355,1.439-3.228,2.092-5.619,1.957s-4.179-0.993-5.364-2.574c-1.185-1.583-1.707-3.632-1.565-6.148
		l0.705-12.511c0.146-2.597,0.876-4.607,2.19-6.031c1.313-1.424,3.206-2.066,5.677-1.927c2.449,0.137,4.251,0.991,5.408,2.559
		c1.157,1.569,1.663,3.646,1.518,6.231l-0.705,12.511C277.505,195.311,276.756,197.289,275.402,198.727z M270.018,196.497
		c1.647,0.093,2.55-1.257,2.707-4.049l0.695-12.355c0.021-0.367,0.028-0.702,0.022-1.007s-0.025-0.629-0.057-0.976
		c-0.032-0.346-0.101-0.651-0.207-0.915c-0.105-0.265-0.238-0.513-0.397-0.746c-0.159-0.232-0.375-0.414-0.649-0.544
		s-0.588-0.205-0.943-0.226c-0.423-0.023-0.797,0.044-1.122,0.204s-0.58,0.366-0.766,0.619c-0.187,0.254-0.34,0.581-0.46,0.981
		s-0.204,0.774-0.252,1.122s-0.085,0.75-0.111,1.207l-0.695,12.357C267.625,194.961,268.371,196.404,270.018,196.497z"/>
</g>
<path fill="#49869D" d="M235.136,96.65c0,0-4,21-4.75,26.25s-4.25,21.75-4.75,25.75s2.5,14.75,3,21.5s-3.5,26-3.5,26
	s-4.75,23.5-4.5,26s-2.5,17.25-2.5,17.25s-2.5,12-4.5,13.5s-2.75,5.5-3.75,7.25s-1,5.251-1,5.251s-1,1.166-1.833,6.166
	s-1.5,9.834-1.333,11.167s-1.333,14.916-1.333,14.916l10.333,2.084c0,0,2.833-18.167,3.833-20.667s2.167-11,2.667-14.5
	s1.333-7.666,3-11.166s5.5-4,5.5-4s0.667-16.5,2.167-18.667s3.667-24.166,3.667-24.166s5.333-25.668,4.667-29.334
	s2.833-31.834,4-34.167s4.333-34.667,4-36.833s-0.167-11.167-0.167-11.167L235.136,96.65z"/>
<path fill="#49869D" d="M215.22,210.4c0,0,4.667-8.333,4.5-19s2.833-19.333,3.5-22.833s-3-8.833-5.333-10.667s-7.5-8.167-6.167-17
	s1.843-24.612,4.417-32.333c1.25-3.75,4.417-9.583,4.417-9.583l-7.667,1.917c0,0-4.333,5.167-4.333,19.167
	s-1.292,33.583,4.833,40.333c5.129,5.652,3.364,11.416,2.375,15.25c-2,7.75-3.75,19.625-3.708,27.084"/>
<path fill="#49869D" d="M343.386,112.65c0,0-8.716,9.557-10.75,40.75c-0.375,5.75-3.489,8.56-2.25,15c0.625,3.25,2.75,9,2.75,9
	l-12.5,22.5l-3.25,15.5l-4.75,10.75l-0.25,19.75c0,0-6.75,10.5-4.25,19.75s4,12,4,12l-3.25,2.5l3,7.5l0.5,3l-13.5-0.25l-2.25-7
	l0.5-3.25c0,0-4.5-2-1.5-5s6-7.75,6-7.75s-5.75-2.5-1-6.75s1.25-7.25,3.75-10s1.25-8.75,1.25-8.75s-1.606-4.629,3-10
	c1-1.166,1.237-18.199,3-30.75c4.25-30.25,16.25-42.25,16.25-42.25s2.25-45.25,5.75-51S343.386,112.65,343.386,112.65z"/>
<path fill="#49869D" d="M301.136,108.275c0,0-0.417,6.792-1.417,16.458s-9,62.666-9.667,65s-3.417,11.417-3.167,14.292
	s-2.5,8.625-2.625,12.125s-0.5,6.875-0.5,6.875s-2.375,8.75-3.5,14.375s-3,5.375-3.75,11.375s-3.625,7-4.125,13.125
	s-7.125,12.25-7.25,16.75s-4.125,6.5-3.125,8.75s1.75,8.625,1.75,8.625l14.792-4.459l2.333-9.666c0,0,3.5-4,4.25-8.875
	s3.625-6.75,4.5-14.25s3.375-8.625,3.875-12.75s4.625-20.125,5.125-24.5s3.125-21,3.125-21s3.375-6.625,3.5-11.75
	s2.875-6.375,3.375-9.75s2.125-12.25,2-15.5s3.375-35.125,3.375-35.125l0.625-27.875l-9.75-3L301.136,108.275z"/>
<path fill="#A5A5A5" d="M293.636,98.11c0,0,5.417,0.634,7.75-0.126c0,0-1.5,3.739-4,3.422
	C294.886,101.089,293.636,98.11,293.636,98.11z"/>
<path fill="#A5A5A5" d="M294.23,83.244c0,0,6.359,1.879,9.453,1.469c0.984-0.016,1.375,0.281,1.375,0.281s-1.435,0.709-2.172,1.406
	c-0.75,0.708-2.438,4.448-3.938,4.313C297.449,90.578,297.813,85.067,294.23,83.244z"/>
<path fill="#A5A5A5" d="M310.886,65.025c0,0-9.104-2.917-8.292,3.333s1.708,5.833,1.708,5.833s4.521-1.542,5.708-4.604
	s0.75-2.938,0.75-2.938L310.886,65.025z"/>
<path d="M290.136,93.191c0,0,10.958-1.625,14,0.375c0,0-1.071,1.65-5.792,1.667C295.449,95.244,290.136,93.191,290.136,93.191z"/>
<path fill="#A5A5A5" d="M262.386,72.212c0,0-5.729-7.209-7.083-4.063c-1.292,3-1.458,5.708-0.792,8.458c0,0,0.406-8.063,2.656-7.521
	C259.129,69.56,262.386,72.212,262.386,72.212z"/>
<path fill="#A5A5A5" d="M259.72,75.066c0,0-3.646,1.354-1.813,2.688s2.417,2.271,3.854,2.583c1.313,0.286-0.313-2.494,0.646-3.917
	C263.699,74.504,262.761,73.504,259.72,75.066z"/>
<g>
	<path fill="#A5A5A5" d="M294.324,79.025c0,0-0.078,0.314-0.225,0.703c-0.071,0.197-0.152,0.417-0.243,0.639
		c-0.072,0.227-0.18,0.451-0.227,0.672c-0.083,0.218-0.099,0.422-0.129,0.615c0.018,0.088-0.02,0.193,0.005,0.28
		c0.025,0.085,0.008,0.191,0.047,0.271c0.031,0.083,0.051,0.172,0.075,0.253c0.038,0.07,0.067,0.141,0.094,0.199
		c0.051,0.119,0.082,0.2,0.082,0.2s-0.076-0.009-0.21-0.048c-0.139-0.032-0.327-0.11-0.516-0.284
		c-0.11-0.072-0.18-0.197-0.267-0.323c-0.093-0.125-0.132-0.283-0.184-0.445c-0.024-0.16-0.06-0.338-0.042-0.506
		c0.02-0.166,0.036-0.341,0.086-0.495c0.193-0.638,0.61-1.106,0.973-1.375C294.004,79.104,294.324,79.025,294.324,79.025z"/>
</g>
<g>
	<path fill="#A5A5A5" d="M295.24,83.479c1.148,0.265,2.305,0.492,3.463,0.706c1.16,0.193,2.324,0.391,3.488,0.475
		c0.585,0.068,1.158,0.055,1.73,0.042c0.576-0.042,1.128-0.15,1.591-0.417c0.469-0.251,0.775-0.694,0.894-1.21
		c0.117-0.515,0.101-1.083-0.019-1.637c-0.1-0.556-0.282-1.105-0.483-1.646l-0.585-1.674l-1.167-3.346
		c-0.193-0.542-0.396-1.135-0.573-1.695l-0.549-1.685l-1.097-3.37l-0.011-0.034l-0.003-0.027c-0.031-0.29-0.03-0.525-0.001-0.783
		c0.027-0.251,0.071-0.504,0.155-0.746c0.069-0.248,0.187-0.478,0.309-0.706c0.135-0.218,0.29-0.432,0.465-0.619
		c0.193-0.167,0.363-0.375,0.587-0.494c0.216-0.131,0.424-0.29,0.659-0.367c0.231-0.084,0.458-0.211,0.695-0.257l0.711-0.167
		c0.237-0.037,0.475-0.05,0.712-0.076c0.238-0.025,0.476-0.049,0.71-0.035c0.469,0.016,0.945-0.006,1.404,0.066
		c0.459,0.063,0.932,0.08,1.38,0.184l1.36,0.265l-0.232,0.973l-1.299-0.275c-0.432-0.108-0.87-0.127-1.305-0.196
		c-0.437-0.077-0.869-0.059-1.303-0.083c-0.219-0.018-0.431,0.002-0.644,0.021c-0.212,0.02-0.428,0.027-0.637,0.056l-0.612,0.133
		c-0.209,0.034-0.383,0.139-0.578,0.203c-0.201,0.059-0.354,0.184-0.528,0.281c-0.184,0.087-0.301,0.247-0.455,0.367
		c-0.133,0.139-0.25,0.295-0.355,0.457c-0.092,0.17-0.188,0.34-0.242,0.53c-0.07,0.182-0.106,0.38-0.131,0.576
		c-0.029,0.191-0.026,0.411-0.014,0.571l-0.014-0.061l1.041,3.387l0.521,1.694c0.171,0.569,0.341,1.097,0.534,1.671l1.112,3.366
		l0.557,1.681c0.201,0.569,0.384,1.149,0.483,1.758c0.117,0.6,0.136,1.245-0.019,1.876c-0.149,0.633-0.586,1.234-1.174,1.531
		c-0.571,0.317-1.216,0.419-1.811,0.454c-0.61,0.006-1.219,0.008-1.809-0.071c-1.191-0.107-2.357-0.325-3.523-0.539
		c-1.162-0.235-2.32-0.482-3.47-0.767L295.24,83.479z"/>
</g>
<path fill="#A5A5A5" d="M293.22,64.15c-0.333-0.017-9.631-1.115-13.25,3.333c-2.271,2.792,4.75,5.792,7.167,6.208
	s8.667-0.292,10.667-2.958S301.47,64.566,293.22,64.15z"/>
</svg>
