<?xml version="1.0" encoding="utf-8"?>
<!-- Generator: Adobe Illustrator 16.0.0, SVG Export Plug-In . SVG Version: 6.00 Build 0)  -->
<!DOCTYPE svg PUBLIC "-//W3C//DTD SVG 1.1//EN" "http://www.w3.org/Graphics/SVG/1.1/DTD/svg11.dtd">
<svg version="1.1" id="Capa_1" xmlns="http://www.w3.org/2000/svg" xmlns:xlink="http://www.w3.org/1999/xlink" x="0px" y="0px"
	 width="1656px" height="1188px" viewBox="0 0 1656 1188" enable-background="new 0 0 1656 1188" xml:space="preserve">
<linearGradient id="SVGID_1_" gradientUnits="userSpaceOnUse" x1="833.1182" y1="1119.6699" x2="833.1182" y2="910.3281">
	<stop  offset="0" style="stop-color:#1E1E1E;stop-opacity:0"/>
	<stop  offset="0.4941" style="stop-color:#22262C;stop-opacity:0.4941"/>
	<stop  offset="1" style="stop-color:#252C36"/>
</linearGradient>
<path opacity="0.7" fill="url(#SVGID_1_)" d="M644.112,1119.67c0,0,3.837-22.469-2.739-30.688s-7.127-26.304-6.029-30.142
	c1.097-3.836,0.547-3.291,2.191-8.769c1.644-5.479-15.893-27.397-13.151-43.292c2.74-15.894,7.123-29.592,4.932-39.455
	c-2.191-9.865,1.646-33.44,4.934-37.271c3.286-3.83,197.284,10.967,197.284,10.967l153.442-30.691l56.993,12.058
	c0,0,1.096,25.758-2.191,33.431c-3.289,7.669,1.646,20.273-15.344,26.85c-16.99,6.576-8.77,26.854-10.961,40.006
	s-7.672,20.826-21.92,28.497c-14.25,7.671-15.896,16.441-21.922,27.399c-6.027,10.96-21.373,35.074-21.373,35.074L644.112,1119.67z"
	/>
<path fill="#FFFFFF" d="M842.492,280.115c0,0-47.677,1.643-74.803,5.754c-27.127,4.109-70.099,11.31-88.504,25.481
	c-10.343,7.964-20.004,27.128-30.69,39.457c-10.686,12.33-50.964,43.567-50.964,43.567s-35.346,27.948-47.677,46.033
	c-12.33,18.084-53.704,34.796-63.021,62.198c0,0,34.524,60.834,66.309,64.668c31.784,3.835,44.937,10.959,49.867,14.247
	c0,0,6.578-13.697,15.347-27.398c8.768-13.702,23.017-30.146,34.525-35.625c11.508-5.477,32.331-18.631,32.331-18.631
	s8.768,22.473,11.509,27.95c2.74,5.478-0.548,31.236-8.769,48.771c-8.222,17.535,6.576,46.578,8.221,53.705
	c1.645,7.124,13.701,27.403,9.316,43.294s-15.346,14.246-12.605,46.033c2.742,31.784-19.05,29.223-26.852,78.363
	c-2.74,17.267-8.221,7.947-10.96,21.1c-2.74,13.153-2.74,33.703-2.74,33.703s-9.865,10.41-5.48,25.206
	c4.385,14.797-6.403,26.061-10.962,43.294c-0.615,2.331-1.642,8.766-1.642,8.766s21.555,19.377,90.969,24.661
	c46.854,3.568,111.246,0,120.563-3.288c20.805-7.34,43.362-20.48,69.599-24.661c20.206-3.22,68.519-7.224,105.765-3.833
	c6.03,0.549,23.018,3.287,23.018,3.287s7.673-34.523-0.547-41.1c0,0,20.274-15.891,12.603-45.484
	c-7.671-29.592-30.825-45.76-30.825-45.76l2.055-82.201c0,0,13.563-22.606,14.796-45.213c1.234-22.604,14.387-46.854,25.895-64.116
	s43.155-78.913,43.155-78.913s36.991,41.515,50.966,57.679c0.821,3.612,4.674,3.87,6.303,4.659
	c9.08,4.406,13.823,10.311,18.768,8.972c21.989-5.959,88.366-48.294,88.366-48.294s-2.464-18.907-25.48-22.194l-52.199-57.541
	c0,0,8.632-18.906-1.644-31.237c-10.275-12.33-36.58-47.95-36.58-47.95s-14.385-23.564-17.262-30.963
	c-2.877-7.397-11.92-15.618-35.347-26.716c-23.429-11.097-42.025-19.218-56.72-24.797c-10.886-4.134-44.8-15.07-44.8-15.07
	s-11.509,28.358-16.029,34.112c-4.521,5.755-9.042,5.755-9.042,5.755s-2.741,43.979-85.902,58.775
	c-15.207-6.303-46.854-28.907-53.019-42.471C835.506,332.586,825.641,293.678,842.492,280.115z"/>
<path fill="#49869D" d="M763.031,956.156c0,0-2.739-36.51,6.028-46.373c8.768-9.864-5.479-44.394,9.864-56.996
	c15.344-12.604,2.193-55.897,18.084-69.05c15.893-13.152,22.468-89.324,22.468-89.324s8.219-61.377,13.7-67.404
	s18.634-115.082,18.634-115.082l12.878-122.757l29.182,16.713l30.413-12.741l-23.153,177.421c0,0-23.429,83.708-24.523,104.531
	s-4.932,71.104-16.44,77.269c-9.917,5.315-9.451,16.03-10.547,35.486c-1.126,19.968-19.729,36.993-20.825,66.037
	c-1.097,29.043-16.441,21.369-16.441,40.002c0,18.635-1.644,61.379-1.644,61.379L763.031,956.156z"/>
<path fill="#49869D" d="M772.723,285.148c0,0-13.253,69.77-15.721,87.032c-2.466,17.261-10.96,71.788-12.604,84.941
	c-1.645,13.152,5.205,48.225,6.85,70.418c1.645,22.194-11.508,85.491-11.508,85.491s-15.618,77.269-14.796,85.49
	c0.821,8.22-8.221,56.719-8.221,56.719s-8.22,39.457-14.796,44.389s-9.043,18.084-12.33,23.839
	c-3.288,5.753-3.288,17.266-3.288,17.266s-3.287,3.833-6.027,20.273c-2.742,16.44-4.932,32.335-4.385,36.719
	c0.548,4.383-4.385,49.044-4.385,49.044l33.978,6.853c0,0,9.316-59.734,12.604-67.954c3.288-8.221,7.123-36.17,8.768-47.677
	c1.645-11.509,4.385-25.207,9.864-36.716c5.48-11.507,18.085-13.151,18.085-13.151s2.19-54.253,7.123-61.379
	c4.932-7.124,12.058-79.459,12.058-79.459s17.535-84.399,15.344-96.452c-2.191-12.054,8.632-107.276,12.466-114.947
	c3.836-7.672,15.619-118.37,14.522-125.495c5.07-6.986,9.522-24.729,4.898-29.354C792.915,282.271,772.723,285.148,772.723,285.148z
	"/>
<path fill="#49869D" d="M989.5,320.334c0,0-1.236,26.092-4.524,57.875s-29.594,206.048-31.785,213.722
	c-2.192,7.676-11.234,37.541-10.412,46.994c0.823,9.453-8.219,28.359-8.631,39.867c-0.411,11.508-1.645,22.606-1.645,22.606
	s-7.81,28.77-11.509,47.266c-3.698,18.495-9.863,17.672-12.329,37.402c-2.467,19.728-11.919,23.016-13.563,43.154
	c-1.644,20.14-23.428,40.28-23.838,55.076c-0.412,14.796-13.563,21.372-10.275,28.771c3.288,7.399,2.158,24.25,5.754,30.004
	c28.153-13.051,48.637-16.307,48.637-16.307l7.672-31.781c0,0,11.509-13.152,13.973-29.181c2.467-16.03,11.92-22.195,14.797-46.856
	s11.098-28.359,12.741-41.923c1.644-13.563,15.208-66.174,16.852-80.559c1.645-14.384,10.275-69.049,10.275-69.049
	s11.097-21.783,11.509-38.634c0.41-16.853,9.453-20.961,11.097-32.06c1.645-11.096,6.987-40.278,6.576-50.965
	c-0.411-10.686,11.098-115.493,11.098-115.493L1034,299.25l-36.25-12L989.5,320.334z"/>
<path opacity="0.5" fill="#282828" d="M981.501,355.5c0,0,22.272-44.133,90.5-41.667c0,0-25.335-11.583-73.834-26.416
	c-24.686-6.297-6.067,16.124-6.067,16.124S989.311,345.225,981.501,355.5z"/>
<path d="M988.751,300.501c-0.104-1.541-1.474,2.531-1.75,2.75c-1.158,0.914-1.269,3.682-2.452,4.552
	c-2.243,1.785-4.766,3.089-7.592,3.881c-1.893,0.255-3.787,0.509-5.682,0.764c-2.908,0-5.768-0.612-8.406-1.741
	c-1.657,0.196-3.326,0.38-5.004,0.561c-10.137,1.089-21.449,3.96-33.009,2.223c-11.391-1.712-21.519-6.683-31.226-12.729
	c-8.387-5.225-10.969-13.348-9.772-20.936c-11.591-0.649-20.374-1.035-23.693-0.943c-14.796,0.411-39.867,2.055-39.867,2.055
	s-12.741,44.799,9.863,75.625c22.606,30.826,63.708,49.321,63.708,49.321s58.773-18.495,73.57-30.825
	c14.796-12.331,23.426-41.102,24.66-50.967c0.67-5.364,3.401-22.09,4.567-32.757C994.523,293.05,991.217,299.304,988.751,300.501z"
	/>
<path fill="#BCBCBC" d="M894,247.5c-3.313-5.767-20.284-14.365-18.75-19.25l-26.5,1.5c0,0,0.373,24.21,0.063,39.75
	c-0.154,7.729-7.438,10.25-10.43,11.985c-10.883,18.39-2.228,49.46,3.014,63.294c9.864,26.031,53.293,43.842,53.293,43.842
	s53.295-9.865,74.119-34.251c10.473-12.262,18.191-42.704,18.858-53.704C942.494,296.47,917.185,287.851,894,247.5z"/>
<path fill="#A5A5A5" d="M942.001,353.333c0.209-12.272,5.167-40.665,8.333-48.499c-22.688-7.667-42.334-22.501-60.084-36.751
	c-0.875,32.891-14.707,70.675-34.132,96.628c16.271,14.763,38.571,23.91,38.571,23.91s27.396-5.081,50.578-16.943
	C943.466,365.729,941.892,359.745,942.001,353.333z"/>
<path fill="#BCBCBC" d="M486.834,502.606c0,0-34.524-3.836-90.423,30.688c-55.896,34.526-113.987,35.621-132.619,37.814
	c-18.631,2.191-42.539-7.127-57.335-13.153c-14.797-6.026-35.051-12.177-39.458-13.77c-7.397-2.671-25.071-20.345-27.949-14.59
	c-2.876,5.754-5.342,20.138,16.237,33.703c0,0-35.018-2.049-51.172-0.617c-16.233,1.438-38.155-0.341-37.332,8.702
	c0.684,7.548,11.919,11.781,29.593,11.781c17.672,0,45.347,6.026,47.401,7.259c2.057,1.234-34.16,6.775-51.512,9.457
	c-16.853,2.604-38.772,6.715-37.813,17.263c1.036,11.393,28.907,7.806,47.813,3.695c18.907-4.109,36.855-2.873,36.855-2.873
	s-36.855,12.738-48.362,15.204c-11.508,2.465-23.317,7-19.935,12.946c6.782,11.919,61.446-5.755,78.092-5.755
	c-8.425,9.453-55.074,17.88-53.225,26.306c1.814,8.265,22.194,7.125,48.498-1.645c26.305-8.769,51.376-6.781,74.394-12.263
	c23.016-5.481,36.766-13.865,60.554-15.618c26.032-1.917,128.986-14.95,143.306-18.769c18.496-4.931,110.973-23.427,125.769-50.553
	C548.21,567.821,496.972,522.06,486.834,502.606z"/>
<path fill="#D6D6D6" d="M486.834,502.606c0,0-34.524-3.836-90.423,30.688c-9.327,5.762-18.715,10.587-27.971,14.647
	C446.001,545.667,489.538,507.796,486.834,502.606z"/>
<path fill="#848484" d="M96.376,583.166c17.672,0,45.347,6.026,47.401,7.259c0.322,0.193,10.017,8.702,15.185,14.37
	c10.762,11.803,22.558,17.85,38.175,21.328c10.416,2.321,58.928,4.751,40.627-20.891c-9.149-12.819-23.368-20.384-36.781-27.904
	c-21.387-11.992-50.217-27.798-57.019-48.078c-2.354-1.035-4.155-1.169-4.914,0.347c-2.876,5.754-5.342,20.138,16.237,33.703
	c0,0,34.729,18.7-43.362,15.001c-16.281-0.771-36.374-3.493-45.142-6.916C67.467,578.933,78.702,583.166,96.376,583.166z"/>
<path fill="#848484" d="M486.834,502.606c0,0,30.139,49.323,14.521,66.858c-38.275,42.973-183.036,55.896-241.125,56.719
	c-17.261,12.058-47.265,25.209-60.109,29.666c6.282-0.738,12.443-1.656,18.461-3.089c23.016-5.481,36.766-13.865,60.554-15.618
	c26.032-1.917,128.986-14.95,143.306-18.769c18.496-4.931,110.973-23.427,125.769-50.553
	C548.21,567.821,496.972,522.06,486.834,502.606z"/>
<path d="M1111.292,523.432c0,0,48.911-72.748,84.257-56.309c35.347,16.44,54.665,57.13,54.665,57.13s-28.638,0.99-72.064,44.938
	c-16.92,17.125-14.758,12.475-18.632,9.042C1146.844,566.998,1111.292,523.432,1111.292,523.432z"/>
<path fill="#BCBCBC" d="M1191.027,594.678c0,0,30.14,21.92,41.102,34.523c10.961,12.604,49.321,45.481,84.942,56.444
	c35.62,10.961,105.766,31.237,105.766,31.237s10.21,16.439,33.43,24.658c6.576,2.329,21.918,13.149,38.362,14.251
	c8.485,0.569,23.696,25.342,33.148,31.917c8.272,5.755,11.246-4.518,7.264-12.534c-4.657-9.387-23.7-33.637-23.7-33.637
	s29.764,16.158,39.729,22.538c7.81,5,26.444,0.205,9.865-13.356c-16.483-13.483-34.217-24.25-34.217-24.25
	s25.533,9.845,32.779,12.741c5.821,2.327,22.947-5.892,6.165-16.646c-21.836-13.99-38.877-18.723-45.555-21.715
	c-3.974-1.78-10.188-6.256-1.301-7.056c12.191-1.095,27.057,3.355,36.102,4.315c13.119,1.394,13.835-12.74-7.537-19.728
	c-21.373-6.986-71.311-13.564-71.311-13.564s-16.255-2.692-8.425-8.836c13.358-10.48,16.293-39.556,2.876-33.909
	c-11.712,4.934-19.583,23.492-34.522,30.416c-8.429,3.905-36.991-12.947-56.721-29.388c-19.729-16.44-53.273-49.842-80.764-60.007
	c-9.142-3.382-15.612-8.824-19.271-12.562c-2.348-2.392-3.54-4.085-3.54-4.085L1191.027,594.678z"/>
<path fill="#D6D6D6" d="M1379.27,623.101c-19.729-16.44-53.273-49.842-80.764-60.007c-0.46-0.17-0.89-0.361-1.336-0.542
	c1.205,13.263,6.158,27.815,14.766,37.5c9.73,10.948,86.147,55.282,118.715,52.823
	C1418.819,651.117,1395.904,636.963,1379.27,623.101z"/>
<path fill="#848484" d="M1512.23,736.23c-5.724,4.663-10.107,6.83-14.588,8.05c-12.053,3.289-50.146-9.452-62.606-14.522
	c5.249,4.207,12.259,8.607,21.23,11.783c6.576,2.329,21.918,13.149,38.362,14.251c8.485,0.569,23.696,25.342,33.148,31.917
	c3.385,2.354,5.865,2.001,7.36,0.244c-21.738-15.316-35.302-35.591-23.797-46.415c10.141,5.481,29.764,16.158,39.729,22.538
	c3.677,2.354,9.752,2.534,13.422,0.652C1556.112,763.611,1515.725,739.416,1512.23,736.23z"/>
<path fill="#848484" d="M1526.719,726.47c4.525,1.712,25.533,9.845,32.779,12.741c2.506,1.001,7.082,0.02,10.171-2.254
	c-10.48,2.356-33.118-12.713-43.393-17.336c-1.083,2.584-3.615,6.055-5.157,8.235
	C1523.123,726.881,1524.305,726.264,1526.719,726.47z"/>
<path fill="#848484" d="M1423.453,688.04c2.064,15.473,14.727,23.428,22.127,26.372c40.966,16.305,80.413-10.928,74.528-13.563
	c-3.974-1.78-10.188-6.256-1.301-7.056c12.191-1.095,27.057,3.355,36.102,4.315c13.119,1.394,11.163-3.905-10.209-10.892
	c-21.372-6.987-54.044-6.242-71.515-12.535c-4.586-1.654-13.379-12.558-5.549-18.701c11.798-9.258,15.465-33.022,6.916-34.554
	C1471.063,636.32,1420.987,669.545,1423.453,688.04z"/>
<path fill="none" stroke="#B7B7B7" stroke-miterlimit="10" d="M1202.886,587.922l-11.858,6.756c0,0,2.94,2.137,7.315,5.462
	C1199.327,595.673,1200.885,591.466,1202.886,587.922z"/>
<path fill="#848484" d="M1239.665,600.839c-6.987-6.44-9.522-16.783-9.728-26.443l-38.91,20.282c0,0,30.14,21.92,41.102,34.523
	c10.961,12.604,49.321,45.481,84.942,56.444c35.62,10.961,87.134,26.442,105.766,31.237
	C1286.382,644.68,1259.666,635.226,1239.665,600.839z"/>
<path d="M836.191,625.637l6.227-82.227l-7.118-0.507l0.616-10.976c3.151-1.233,6.028-3.016,8.084-6.304l11.221,0.495l-7.246,100.341
	L836.191,625.637z"/>
<path d="M908.139,535.197c-3.373-4.57-8.629-7.084-15.62-7.472c-7.071-0.396-12.581,1.502-16.409,5.65
	c-3.744,4.058-5.852,9.802-6.256,17.021l-4.746,55.28c-0.396,7.061,1.116,12.932,4.492,17.439c3.441,4.592,8.656,7.785,15.496,8.169
	c0.573,0.034,1.137,0.714,1.688,0.714c0.002,0,0.002,0,0.002,0c6.051,0,10.947-2.608,14.549-6.437
	c3.863-4.099,6.022-10.094,6.413-17.105l4.747-55.448C912.9,545.768,911.435,539.666,908.139,535.197z M899.452,558.435
	l-3.146,42.689c-0.264,5.073-1.457,9.645-3.188,12.225c-1.675,2.502-3.908,3.597-6.736,3.453c-2.875-0.175-4.954-1.565-6.357-4.246
	c-1.461-2.809-2.143-7.383-1.873-12.507l3.145-42.69c0.263-4.999,1.495-9.622,3.295-12.365c1.5-2.285,3.524-3.396,6.189-3.396
	c0.205,0,0.413,0.006,0.628,0.019c2.949,0.172,5.046,1.55,6.413,4.207C899.163,548.435,899.741,552.928,899.452,558.435z"/>
<path fill="#49869D" d="M706.243,661.735c0,0,16.234-29.249,15.688-64.322c-0.548-35.074,9.316-63.568,11.508-75.076
	s-9.866-29.045-17.537-35.075c-7.671-6.028-24.658-26.854-20.274-55.896c4.383-29.043,6.059-80.926,14.521-106.314
	c4.111-12.33,14.521-31.51,14.521-31.51l-25.207,6.302c0,0-14.249,16.988-14.249,63.021c0,46.032-4.246,110.425,15.893,132.619
	c16.864,18.585,11.063,37.536,7.808,50.144c-6.41,24.849-12.043,62.598-12.191,87.199c-0.004,0.628,7.671,16.784,9.453,28.428"/>
<path fill="#49869D" d="M1126.5,340.121c0,0-26.604,29.78-33.292,132.345c-1.233,18.906-11.472,28.145-7.398,49.321
	c2.056,10.687,9.043,32.881,9.043,32.881s-12.331,25.688-37.403,65.761c-6.526,10.433-14.359,50.394-16.028,58.569
	c-3.288,16.101-13.975,32.676-13.975,32.676l-0.821,64.939c0,0-22.194,34.524-13.975,64.938
	c8.22,30.415,13.151,39.457,13.151,39.457l-10.686,8.22l9.864,24.661l1.489,9.659l-44.576-1.848l-7.056-21.786l1.644-10.687
	c0,0-14.797-6.576-4.932-16.439c9.863-9.865,19.729-25.482,19.729-25.482s-18.907-8.22-3.288-22.194
	c15.617-13.975,4.109-23.839,12.33-32.883c8.219-9.041,4.11-28.769,4.11-28.769s-5.282-15.221,9.863-32.882
	c3.287-3.834,4.067-59.84,9.864-101.107c13.975-99.465,53.432-138.921,53.432-138.921s6.164-147.347,17.673-166.253
	C1106.977,326.352,1126.5,340.121,1126.5,340.121z"/>
<path d="M959.438,259.037c0,0,31.424-4.905,40.277,0.838c0,0-3.118,4.738-16.861,4.787
	C974.421,264.691,959.438,259.037,959.438,259.037z"/>
<path fill="#848484" d="M155.56,645.228c-4.931-6.168-11.679-36.307-11.938-41.333c-0.029,0.005-0.062,0.008-0.091,0.011
	c-1.518,2.582-4.163,4.524-7.972,4.74c-25.351,1.419-64.254,18.498-80.615,5.346c-0.387,0.986-0.593,2.026-0.491,3.153
	c1.036,11.393,28.907,7.806,47.813,3.695c15.334-3.333,30.033-3.15,35.043-2.96c7.054-1.797,13.808,13.29,6.47,16.389
	c-9.636,4.066-64.664,16.303-73.364,8.705c-0.314,0.999-0.214,2.046,0.41,3.144c6.782,11.919,61.446-5.755,78.092-5.755
	C148.854,640.431,151.861,643.038,155.56,645.228z"/>
<path fill="#848484" d="M153.367,659.063c-19.904,4.981-36.991,11.919-54.146,10.452c-0.56-0.049-1.076,0.139-1.584,0.126
	c5.913,4.78,24.042,2.887,46.552-4.618c8.139-2.714,16.152-4.379,24.026-5.57C164.67,658.447,157.204,658.104,153.367,659.063z"/>
<path fill="#A5A5A5" d="M1272.634,570.902c11.749-12.205,6.864-19.368,5.578-21.424c4.933,5.189,11.149,9.146,11.149,9.146
	S1284.726,564.288,1272.634,570.902z"/>
<path d="M993.706,66.467"/>
<path opacity="0.5" fill="#282828" d="M653.017,885.119c0,0,12.742,14.385,35.759,10.686s126.692-38.297,166.868-56.308
	c38.867-17.423,136.456-73.161,145.909-87.956l9.041-18.496c0,0-53.019,49.321-140.153,88.778
	c-87.133,39.458-179.61,66.174-179.61,66.174S668.636,892.518,653.017,885.119z"/>
<path opacity="0.5" fill="#282828" d="M659.594,913.89c0,0,37.401,20.14,93.299,17.263c26.183-1.349,113.85-18.907,143.031-26.306
	c29.182-7.396,89.188-24.248,101.108-38.224c0,0-133.126,36.531-166.458,42.745C740.151,926.219,701.928,920.054,659.594,913.89z"/>
<path opacity="0.5" fill="#282828" d="M781.251,898.99c0,0,23.429,10.069,51.927,1.471
	c131.412-39.653,189.336-122.475,193.721-132.887c0.205-5.652-0.171-7.71,0.137-13.568c0,0-29.183,40.691-47.677,54.664
	c-18.495,13.975-50.554,45.212-96.176,64.939C842.379,891.256,799.132,900.943,781.251,898.99z"/>
<path opacity="0.5" fill="#282828" d="M1041.421,884.023c0,0-49.321,23.017-87.682,31.237c0,0,27.674,1.917,93.436-15.141
	C1047.175,900.12,1045.736,890.532,1041.421,884.023z"/>
<path opacity="0.5" fill="#282828" d="M647.949,872.512c0,0,12.055-22.736,59.322-38.77
	c31.516-10.688,115.494-33.567,133.028-41.788c17.535-8.22,119.467-52.608,128.784-65.212c0,0-132.68,57.322-166.048,66.856
	C737.821,812.232,644.113,837.438,647.949,872.512z"/>
<path opacity="0.5" fill="#282828" d="M1011.281,589.744c0,0-55.351,40.004-90.422,64.664
	c-35.074,24.66-94.261,72.886-111.248,81.107c0,0,64.275-59.77,79.735-71.108C905.787,652.35,956.479,613.859,1011.281,589.744z"/>
<path opacity="0.5" fill="#282828" d="M685.213,499.867c0,0,10.831-23.033,36.443-37.54
	c30.961-17.536,101.109-41.922,138.374-43.565c0,0-53.432-7.125-118.371,22.468C698.356,460.963,689.872,473.289,685.213,499.867z"
	/>
<path opacity="0.5" fill="#282828" d="M725.297,513.329c-12.919,4.819-21.248,10.702-28.045,16.113
	c0.27,1.021,0.339,10.034-0.103,11.457c3.229-2.8,6.308-5.874,10.469-7.902c26.917-13.127,80.743-36.474,110.487-35.596
	C818.105,497.401,779.746,493.016,725.297,513.329z"/>
<path opacity="0.5" fill="#282828" d="M730.15,616.046c0,0,72.338-4.931,110.697-27.948
	C840.848,588.098,790.433,625.912,730.15,616.046z"/>
<path opacity="0.5" fill="#282828" d="M734.533,582.366c0,0,42.197-2.151,80.559-13.447
	C815.092,568.919,794.815,587.208,734.533,582.366z"/>
<path opacity="0.5" fill="#282828" d="M664.938,428.077c9.042,27.537,7.397,44.389,7.397,44.389
	c-11.098-30.825-39.868-39.456-39.868-39.456c17.654,6.954,30.601,36.354,37.494,56.048c-0.121,0.038-0.249,0.045-0.367,0.123
	c-53.704,35.895-66.584,92.341-66.584,92.341s15.621-33.568,35.897-53.021c9.975-9.572,17.809-11.851,25.208-15.961
	c4.525-2.515,8.373-4.967,11.075-6.776c0.285,1.054,0.434,1.639,0.434,1.639l10.686-8.083
	C689.598,461.507,664.938,428.077,664.938,428.077z"/>
<path opacity="0.5" fill="#282828" d="M1186.37,560.422l-23.017,20.552c0,0-1.354-0.463-0.84,0.872
	c1.131,2.941,3.571,2.933,7.193,4.572c2.724,1.232,5.901,3.504,11.045,6.885c5.395,3.545,8.17,0.926,12.074-1.541
	C1192.826,591.762,1182.809,570.834,1186.37,560.422z"/>
<path opacity="0.5" fill="#282828" d="M1135.418,445.561C1082.173,467.408,1056.5,523,1056.5,523
	c3.662-4.515,8.298-6.785,12.296-11.307c-14.647,19.729-21.744,36.619-21.744,36.619c33.693-42.648,84.543-88.579,84.543-88.579
	c-11.757,4.955-22.214,11.595-31.449,18.999C1119.548,459.518,1135.418,445.561,1135.418,445.561z"/>
<path opacity="0.5" fill="#282828" d="M1084.166,527.5c6.834-10,19.11-23.664,36.167-32.5c0,0-25.894,27.197-28.77,35.419
	c0,0,25.567-31.782,44.27-36.919c0,0-19.416,19.833-27.833,36.417c-6.41,12.629-20.75,40.708-33.625,62.583
	c-8.096,13.756-15.136,23.97-19.042,32.667c-3.771,8.396-5.416,16.25-5.416,16.25S1049,624.125,1062,594.75
	c9.072-20.5,16.834-32.75,19.001-41.417c0,0-6,5.667-17.334,24.834C1068,559.333,1074.891,541.073,1084.166,527.5z"/>
<path opacity="0.5" fill="#282828" d="M821.395,340.531c0,0-28.223-23.479-48.362-23.479c0,0,33.702-6.67,43.978-16.937
	C815.504,324.623,821.395,340.531,821.395,340.531z"/>
<path fill="#A5A5A5" d="M1183.013,464.796c0,0,12.125-9.182,4.727-27.265c0,0,11.92,14.795,7.81,29.592
	C1195.549,467.123,1189.521,463.973,1183.013,464.796z"/>
<path fill="#848484" d="M848.5,226.75c0,0,0.5,9.584,0.417,14.334c4.833-5.25,13.916-3,21.166-10.5S848.5,226.75,848.5,226.75z"/>
<path fill="#BCBCBC" d="M861.097,171.284c0,0-9.04-9.905-18.167-9.61c-6.434,0.209-14.123,8.259-14.613,21.327
	c-1.186,31.61,17.361,49.472,31.596,49.762c6.45,0.132,8.601-0.702,8.601-0.702s-0.263,14.833,7.986,24.136
	c11.147,12.57,48.856,38.869,61.348,44.496c18.698,8.434,37.664,6.871,48.232,2.733c9.088-3.554,18.145-27.484,20.926-34.503
	c3.687-9.303,4.649-24.265,7.021-30.191c2.364-5.915,13.691-26.856,9.591-54.632c-1.253-8.484,0.896-10.794,2.872-15.931
	c1.977-5.138,2.853-10.971-1.492-20.187c-3.648-7.74-11.671-35.632-18.868-47.918c-2.272-3.879-7.534-16.325-7.534-16.325
	L887.042,95.065L861.097,171.284z"/>
<path fill="#D6D6D6" d="M997.75,224.25c7.75,9.875,7.843,14.649,8.75,20.375c1.439,9.077-3.878,33.015-4.144,35.583
	c2.093-4.72,3.721-8.943,4.648-11.285c3.687-9.303,4.649-24.265,7.021-30.191c0.62-1.551,3.188-7.139,4.6-10.606
	c-5.458,5.792-17.375-0.125-18.125-7C1000.376,219.987,998.25,218.125,997.75,224.25z"/>
<path fill="#848484" d="M978.525,285.422c-11.883,10.912-23.302,8.293-31.068,6.45c-19.205-4.558-61.742-29.488-73.413-38.972
	c0.722,1.148,1.534,2.257,2.455,3.296c11.147,12.57,48.856,38.869,61.348,44.496c18.698,8.434,37.664,6.871,48.232,2.733
	c2.625-1.026,5.245-3.76,7.714-7.287C988.926,292.926,984.976,279.497,978.525,285.422z"/>
<path fill="#848484" d="M971.943,261.33c0,0,12.506,7.109,23.564,0.395c0,0-4.644,14.054-12.638,14.657
	C973.566,277.085,971.943,261.33,971.943,261.33z"/>
<path fill="#3D3D3D" d="M965.688,248.959c0,0,28.354-3.41,35.813-0.251c0,0-4.059,3.013-14.418,3.013
	C981.641,251.721,965.688,248.959,965.688,248.959z"/>
<path fill="#848484" d="M860.042,181.666c0,0-16.367-23.239-22.393-12.842c-5.178,8.932-7.402,17.95-3.804,32.738
	c0,0,1.688-29.449,8.952-30.322C848.81,170.517,860.042,181.666,860.042,181.666z"/>
<path fill="#848484" d="M849.577,194.717c-3.027,0.922-8.825,0.923-7.504,6.648c0.987,4.278,3.884,6.188,6.846,7.701
	c3.18,1.625-1.507-6.722,4.016-9.281c10.795-5.002,8.562-11.47,6.517-10.729C855.633,190.438,853.979,193.377,849.577,194.717z"/>
<g>
	<path fill="#848484" d="M966.019,215.122c0,0,0.067,0.201,0.185,0.554c0.121,0.335,0.276,0.789,0.508,1.254
		c0.094,0.237,0.245,0.464,0.359,0.697c0.155,0.218,0.274,0.448,0.45,0.643c0.137,0.218,0.351,0.379,0.501,0.581
		c0.223,0.153,0.362,0.369,0.608,0.512c0.22,0.167,0.429,0.346,0.694,0.49c0.126,0.074,0.248,0.157,0.366,0.247
		c0.124,0.084,0.272,0.136,0.4,0.218c0.273,0.135,0.511,0.336,0.792,0.449c0.269,0.135,0.525,0.277,0.768,0.422
		c0.237,0.156,0.478,0.263,0.685,0.386c0.21,0.107,0.395,0.232,0.549,0.329c0.309,0.198,0.491,0.347,0.491,0.347
		s-0.192,0.113-0.539,0.248c-0.173,0.065-0.387,0.152-0.633,0.217c-0.248,0.066-0.529,0.172-0.841,0.188
		c-0.312,0.031-0.653,0.053-1.019,0.058c-0.363,0.023-0.751-0.071-1.152-0.14c-0.402-0.059-0.816-0.202-1.225-0.395
		c-0.422-0.149-0.81-0.432-1.196-0.712c-0.386-0.271-0.706-0.675-1.008-1.037c-0.259-0.414-0.516-0.82-0.637-1.266
		c-0.168-0.428-0.203-0.866-0.245-1.264c0.007-0.404,0.018-0.775,0.104-1.105c0.061-0.331,0.186-0.618,0.289-0.862
		c0.108-0.245,0.232-0.444,0.345-0.602C965.835,215.264,966.019,215.122,966.019,215.122z"/>
</g>
<polygon opacity="0.8" fill="#232323" points="918.827,79.604 917.326,73.63 916.872,73.803 "/>
<g>
	<path fill="#232323" d="M951.184,55.755c-2.104-1.245-3.8-3.439-3.8-3.439c-0.673-0.871-1.323-1.821-1.446-2.112
		c-0.122-0.29-0.729-1.911-1.075-2.955l-0.845-6.522c0.058-1.099-0.572-1.405-1.401-0.682l-0.656,0.572
		c-0.829,0.724-1.465,0.416-1.413-0.683l0.111-2.364c0.052-1.099-0.559-1.379-1.357-0.621l-4.475,4.247
		c-0.799,0.758-1.3,0.49-1.114-0.595l0.61-3.577c0.186-1.085-0.315-1.352-1.113-0.595l-3.478,3.302
		c-0.798,0.757-1.614,0.492-1.816-0.589l-0.378-2.035c-0.201-1.081-1.057-1.389-1.901-0.684l-0.938,0.783
		c-0.845,0.705-2.055,2.017-2.689,2.915l-0.451,0.638c-0.635,0.897-1.02,0.743-0.855-0.345l0.295-1.958
		c0.164-1.088-0.329-1.333-1.098-0.545l-3.057,3.136c-0.769,0.788-1.105,0.581-0.75-0.46l0.387-1.132
		c0.355-1.041,0.028-1.238-0.728-0.438l-3.689,3.904c-0.756,0.8-1.315,0.556-1.244-0.542l0.224-3.447
		c0.071-1.098-0.386-1.258-1.015-0.356l-3.389,4.854c-0.629,0.901-1.247,0.745-1.372-0.348l-0.067-0.58
		c-0.125-1.093-0.787-1.282-1.472-0.421l-3.527,4.439c-0.685,0.861-1.239,0.666-1.233-0.434l0.011-2.245
		c0.006-1.1-0.469-1.238-1.056-0.309l-2.501,3.967c-0.586,0.93-1.106,0.792-1.156-0.307l-0.132-2.939
		c-0.05-1.099-0.548-1.224-1.108-0.277l-3.338,5.638c-0.561,0.946-1.17,0.834-1.354-0.251l-0.324-1.902
		c-0.185-1.085-0.796-1.198-1.359-0.253l-2.624,4.408c-0.563,0.945-1.051,0.819-1.084-0.28l-0.046-1.502
		c-0.033-1.1-0.529-1.23-1.103-0.292l-2.749,4.503c-0.573,0.938-1.235,0.828-1.471-0.246l-0.555-2.523
		c-0.235-1.074-0.804-1.135-1.263-0.135l-2.503,5.459c-0.459,1-0.7,0.929-0.537-0.159l0.156-1.045
		c0.163-1.088-0.248-1.261-0.913-0.386l-3.678,4.839c-0.665,0.875-1.24,0.692-1.276-0.407l-0.082-2.453
		c-0.036-1.1-0.446-1.184-0.91-0.186l-2.988,6.416c-0.464,0.998-0.923,0.917-1.019-0.179l-0.501-5.726
		c-0.097-1.096-0.434-1.13-0.75-0.077l-0.645,2.143c-0.316,1.053-1.046,2.682-1.621,3.619l-2.024,3.299
		c-0.575,0.938-1.028,0.805-1.007-0.296l0.089-4.5c0.021-1.101-0.312-1.171-0.74-0.158l-1.191,2.816
		c-0.429,1.013-1.319,2.562-1.979,3.441l-1.1,1.467c-0.66,0.88-1.859,0.987-2.665,0.238l-1.82-1.693
		c-0.806-0.749-1.399-0.464-1.319,0.634l0.376,5.176c0.08,1.098-0.754,2.024-1.854,2.06l-3.752,0.121
		c-1.1,0.035-1.306,0.638-0.458,1.339l1.251,1.035c0.848,0.701,0.697,1.587-0.334,1.969l-0.75,0.278
		c-1.031,0.382-1.744,1.388-1.584,2.235c0.161,0.849-0.401,2.115-1.249,2.816l-1.251,1.034c-0.848,0.701-1.512,1.922-1.477,2.712
		c0.035,0.791,0.324,2.065,0.641,2.832c0.316,0.766,1.101,2.841,1.471,2.791c0.369-0.05,1.435-0.567,2.367-1.149
		c0,0,1.408-0.879,3.235-1.494c2.078-0.7,4.438-0.781,4.438-0.781c1.1-0.037,2.451-0.847,3.004-1.797c0,0,3.851-6.622,8.642-7.838
		c6.153-1.561,12.548-2.271,18.888-2.417c1.213-0.028,1.555,0.037,1.555,0.037c1.081,0.206,2.527-0.327,3.216-1.186
		c0,0,1.455-1.814,3.495-2.774c11.148-5.248,22.624-10.399,34.603-13.447c11.372-2.894,23.377-2.354,34.409-3.964
		c0.422-0.062,0.422-0.062,0.422-0.062c0.463-0.045,0.84-0.149,0.84-0.231c-0.001-0.083-0.863-0.576-1.911-0.911
		C952.962,56.63,952.336,56.43,951.184,55.755z"/>
</g>
<polygon opacity="0.8" fill="#232323" points="940.481,74.611 937.908,72.985 937.296,72.388 937.139,75.219 "/>
<polygon opacity="0.8" fill="#232323" points="910.979,76.041 916.872,73.803 916.784,73.543 "/>
<g>
	<path fill="#232323" d="M1039.083,74c-0.191-0.401-11.445,0.828-11.666,0.417c-0.211-0.392,6.572-4.016,6.333-4.417
		c-0.228-0.383-8.302,1.29-8.583,0.917c-0.27-0.356,10.813-8.365,10.521-8.729c-0.28-0.35-8.784,4.032-9.086,3.676
		c-0.29-0.343,6.335-6.728,6.024-7.076c-0.297-0.335-9.435,7.179-9.751,6.838c-0.306-0.329,7.205-12.054,6.869-12.377
		c-0.324-0.313-10.908,10.18-11.248,9.861c-0.329-0.307,4.285-8.172,3.941-8.484c-0.334-0.303-6.2,3.713-6.563,3.438
		c-0.357-0.271,3.868-8.267,3.499-8.531c-0.365-0.262-5.241,3.964-5.624,3.719c-0.377-0.242,3.777-8.226,3.375-8.438
		c-0.396-0.209-10.502,8.831-10.908,8.627c-0.4-0.202,5.377-10.88,4.968-11.077c-0.404-0.195-7.771,7.273-8.186,7.09
		c-0.411-0.183,5.166-9.049,4.744-9.216c-0.418-0.165-10.708,9.629-11.133,9.468c-0.42-0.16,5.113-6.745,4.688-6.902
		c-0.423-0.155-8.313,4.781-8.744,4.638c-0.427-0.141,3.752-5.863,3.321-6.002c-0.428-0.137-7.503,4.064-7.938,3.938
		c-0.432-0.126,4.625-9.127,4.188-9.25c-0.432-0.122-7.478,8.947-7.916,8.834c-0.437-0.113,1.934-6.381,1.494-6.491
		c-0.438-0.11-4.179,5.642-4.619,5.533c-0.438-0.107,1.746-5.728,1.354-5.501c-3.104,1.792,0.566-5.59,0.125-5.688
		c-0.44-0.098-7.118,10.618-7.562,10.522c-0.441-0.095,2.291-6.824,1.847-6.915c-0.442-0.091-6.027,6.378-6.472,6.289
		c-0.443-0.09,3.699-9.961,3.254-10.047c-0.444-0.085-7.768,9.755-8.213,9.671c-0.445-0.083,3.446-8.668,3-8.75
		c-0.445-0.081-8.47,8.24-8.917,8.167c-0.449-0.073,1.197-7.49,0.75-7.563c-0.447-0.071-6.49,7.256-6.938,7.188
		c-0.447-0.067,0.259-5.371-0.188-5.438s-6.735,4.876-7.188,4.938c-0.438,0.059,0.323-4.768-0.125-4.688
		c-0.437,0.077-4.43,4.905-4.875,5c-0.435,0.093-0.31,1.706-0.751,1.813c-0.225,0.055-0.225,0.055-0.225,0.055
		c0.64,0.383,1.125,1.042,1.079,1.465c0,0,0,0-0.291,1.827c-0.12,0.751-0.123,0.771-0.123,0.771
		c-0.133,0.814,0.417,1.635,1.221,1.822c0,0,6.992,1.637,9.741,6.493c0.255,0.451,0.255,0.451,0.255,0.451
		c0.294,0.49,0.586,0.948,0.65,1.019c0.063,0.069,0.642,0.618,1.073,0.98c0.432,0.361,0.724,0.662,0.759,0.688c0,0,0,0,0.034,0.021
		c1.058,0.65,1.931,1.102,1.931,1.102c0.732,0.379,1.96,0.937,2.729,1.238c0,0,0.657,0.258,1.051,0.386
		c6.508,2.11,13.236,3.305,19.88,4.884c15.558,3.696,29.506,10.562,35.05,26.576c1.363,3.937-8.891,10.268-8.891,10.268
		c-0.702,0.434-0.806,1.272-0.231,1.864c0,0,1.705,1.754,1.705,4.257c0,0.761,2.218,4.388,2.218,4.388
		c0.43,0.703,0.577,0.636,0.327-0.149c0,0-0.903-2.834-0.545-3.154c0.328-0.294,9.141,7.019,9.479,6.686
		c0.316-0.313-3.636-6.905-3.313-7.25c0.307-0.325,6.314,4.602,6.625,4.25c0.298-0.338-2.925-4.329-2.625-4.688
		c0.289-0.347-2.602-3.636-2.313-4c0.282-0.354,11.47,9.682,11.75,9.313c0.274-0.361-7.585-9.313-7.313-9.688
		c0.268-0.368,5.068,3.311,5.332,2.932c0.261-0.374-1.904-2.386-1.648-2.769c0.254-0.381-3.244-3.714-2.996-4.101
		c0.247-0.386,8.104,4.646,8.344,4.254c0.24-0.392-4.45-4.108-4.219-4.504c0.232-0.397,9.163,2.805,9.376,2.401
		c0.217-0.408-8.705-4.932-8.501-5.339c0.207-0.415,7.435,1.989,7.627,1.577c0.197-0.421-4.619-3.224-4.439-3.64
		c0.186-0.428,5.521,1.37,5.686,0.949c0.171-0.434-3.556-2.359-3.406-2.783c0.154-0.441-4.698-2.341-4.569-2.769
		c0.132-0.439,6.843,1.104,6.976,0.667c0.133-0.439-7.641-4.557-7.517-4.996c0.125-0.44,10.358,1.913,10.473,1.471
		c0.113-0.442-5.473-2.901-5.392-3.352c0.081-0.448-4.496-1.296-4.438-1.75c0.059-0.451,14.014-0.087,14.047-0.544
		c0.032-0.453-14.363-2.869-14.359-3.33C1028.253,78.8,1039.282,74.422,1039.083,74z"/>
</g>
<path fill="#848484" d="M926.5,175.021c0,0,17.374-13.21,37.602-17.134c7.678-1.489,14.904-4.143,19.753,0.112
	c1.055,0.927,0.709,5.542-2.776,8.749c-3.235,2.977-9.095,6.888-14.288,7.917c-7.299,1.447-16.688,0.532-22.384-3.189
	C944.406,171.477,937.67,171.563,926.5,175.021z"/>
<path fill="#848484" d="M982.256,154.829c0,0,5.353-3.863,5.792-8.427c0,0,1.141,7.197-4.563,9.831
	C980.257,157.724,982.256,154.829,982.256,154.829z"/>
<g>
	<path fill="#848484" d="M928.369,167.817c0,0-0.143,0.164-0.363,0.417c-0.221,0.238-0.523,0.591-0.889,0.944
		c-0.183,0.175-0.371,0.384-0.578,0.57c-0.207,0.189-0.43,0.368-0.646,0.579c-0.221,0.203-0.452,0.398-0.698,0.579
		c-0.249,0.174-0.474,0.396-0.72,0.583c-0.252,0.182-0.5,0.367-0.766,0.526c-0.24,0.19-0.488,0.367-0.739,0.531
		c-0.25,0.164-0.508,0.311-0.762,0.446c-0.265,0.124-0.473,0.29-0.704,0.409c-0.454,0.247-0.879,0.435-1.202,0.556
		c-0.319,0.123-0.534,0.177-0.534,0.177s0.002-0.207,0.062-0.542c0.057-0.336,0.173-0.802,0.368-1.338
		c0.108-0.259,0.203-0.564,0.38-0.824c0.168-0.268,0.355-0.545,0.566-0.819c0.211-0.273,0.433-0.559,0.686-0.817
		c0.265-0.246,0.556-0.473,0.844-0.703c0.305-0.208,0.58-0.455,0.917-0.607c0.322-0.171,0.65-0.32,0.972-0.451
		c0.313-0.144,0.651-0.221,0.966-0.294c0.317-0.066,0.611-0.128,0.899-0.147c0.288-0.019,0.557-0.01,0.79-0.001
		c0.226-0.005,0.454,0.047,0.621,0.074C928.179,167.725,928.369,167.817,928.369,167.817z"/>
</g>
<path fill="#848484" d="M995.596,216.614c-3.276-4.673-10.904-7.438-16.873-3.928c-5.969,3.511-4.006,6.882,0.658,6.78
	c2.499-0.055,5.624-2.188,9.347-2.567C992.521,216.513,996.627,218.084,995.596,216.614z"/>
<path fill="#848484" d="M1011.393,210.032c0,0-3.422,7.109-18.913,11.804c-2.327,0.706-4.213,0.79-4.213,0.79
	s2.414,2.063,2.678,11.015c0.263,8.951,5.354,4.717,5.222,0.965c-0.072-2.042-0.131-5.968-0.131-5.968s0.616-4.72,4.215-6.388
	C1006.031,219.569,1011.304,214.333,1011.393,210.032z"/>
<path fill="#D6D6D6" d="M992.962,170.451c0,0,11.029,25.36,14.986,34.205c1.864,4.169,6.846,4.147,3.971-2.084
	c-4.56-9.884-16.082-35.106-16.082-35.106s-1.119-3.949-0.396-7.569C995.441,159.896,991.206,164.308,992.962,170.451z"/>
<path fill="#848484" d="M998.917,147.251c0,0-6.049,7.404-1.663,10.583C997.254,157.834,997.329,152.213,998.917,147.251z"/>
<path fill="#232323" d="M941.138,158.251c15.198-2.504,36.202-3.687,40.547-1.975c4.399,1.733,1.756,6.455-4.213,7.372
	c-11.099,1.705-20.607-5.837-44.204,0.973C927.292,166.343,935.598,159.164,941.138,158.251z"/>
<path fill="#D6D6D6" d="M1001.234,99.142c0,0,4.7,21.737,3.84,35.149c-0.438,6.847,1.962,8.474,4.037,8.909
	c4.607,0.966,3.556,3.026,2.809,4.037c-2.098,2.838-1.711,5.66-0.527,5.924c2.682,0.597,14.218,2.018,16.5,7.811
	c2.282,5.792-1.755-13.517-5.09-18.957c-3.336-5.441-11.761-32.122-11.761-32.122S1007.093,98.089,1001.234,99.142z"/>
<path fill="#D6D6D6" d="M999.282,179.227c0,0,11.277,6.67,18.474-1.755c0,0,3.117,0.526,5.398,5.968
	c2.281,5.442,0.657,11.673-1.844,13.91c-1.688,1.51-10.356,2.064-15.358-5.133C1000.949,185.02,999.282,179.227,999.282,179.227z"/>
<path fill="#848484" d="M939.295,176.813c0,0,12.455,10.812,29.62,0.921C968.915,177.734,955.574,181.07,939.295,176.813z"/>
<path fill="#848484" d="M961.544,249.263c0,0,13.165-4.213,16.324-5.792c3.159-1.58,8.627-4.875,13.756-1.821
	c2.765,1.646,3.448-0.37,4.542-0.725c2.238-0.724,5.266,1.316,5.463,7.833C1001.629,248.758,985.941,247.156,961.544,249.263z"/>
<path fill="#848484" d="M966.019,208.979c0,0-8.328,3.104-6.959,15.184C959.06,224.163,963.036,212.402,966.019,208.979z"/>
<path fill="#848484" d="M1005.824,162.376c2.213,0.439,8.837,2.307,11.779,6.144c3.804,4.959,0.783,5.245-1.775,3.95
	c-2.421-1.225-5.232,0.087-7.008,0.789c-1.159,0.459-8.92,1.382-11.548-2.699c-2.629-4.081-1.831-10.663-1.831-10.663
	S1003.611,161.938,1005.824,162.376z"/>
<path fill="#232323" d="M1022.348,160.027c-8.911-1.929-19.798-3.971-23.66-0.983c-2.808,2.173-0.941,4.214,5.17,4.68
	c7.662,0.584,11.004-1.984,17.621-1.656C1023.639,162.506,1024.041,160.597,1022.348,160.027z"/>
<path fill="#848484" d="M863.335,197.044c0,0-6.109,7.44,0.877,11.761c2.414,1.492-0.965-2.764-0.614-5.485
	S864.301,195.2,863.335,197.044z"/>
<path fill="#C6C6C6" d="M952.582,172.542c-1.417-0.468-4.018-0.393-5.783-5.543c3.318-0.651,2.855-0.325,2.855-0.325
	s17.431-2.188,16.146,2.569C964.357,174.588,953.531,172.855,952.582,172.542z"/>
<path fill="#848484" d="M836.217,207.662c0,0,3.29,8.03,12.769,11.015C851.289,218.545,839.552,211.611,836.217,207.662z"/>
<path fill="#C6C6C6" d="M1000.555,165.668c0,0,0.571,4.125,4.564,5.396c3.992,1.272-2.238-5.968-2.238-5.968
	S1000.334,164.482,1000.555,165.668z"/>
<g>
	<path fill="#3D3D3D" d="M949.728,167.532c0,0-0.419,4.958,7.339,5.419c5.179,0.308,8.382-0.79,9.566-3.949
		c0.781-2.086-2.237-3.773-5.748-3.905c-2.906-0.109-8.755-0.855-17.07,2.721C946.601,167.4,949.728,167.532,949.728,167.532z"/>
	<path fill="#3D3D3D" d="M964.22,165.931c0,0,1.755-0.087,4.52,3.817l-3.993-1.492L964.22,165.931z"/>
	<path fill="#3D3D3D" d="M1000.423,164.878c0,0,11.233-1.58,16.456,4.958c0,0-3.291-0.834-3.818-0.482c0,0-1.273,2.721-5.529,2.413
		c-4.533-0.327-5.441-3.246-5.091-4.914C1002.791,165.184,1000.423,164.878,1000.423,164.878z"/>
</g>
<circle opacity="0.5" fill="#C6C6C6" cx="962.641" cy="168.169" r="1.097"/>
<circle opacity="0.5" fill="#C6C6C6" cx="1010.641" cy="168.169" r="1.097"/>
<path fill="#232323" d="M1017.376,65.819c-0.631-0.658-1.16-1.337-1.614-2.027c-3.311-1.745-6.633-3.469-9.937-5.224
	c-6.191-1.976-12.352-4.056-18.432-6.335c-1.994,1.361-4.365,2.145-6.894,2.017c-8.59-0.432-15.935-3.94-23.929-6.68
	c-0.173-0.059-0.347-0.119-0.52-0.179C936.558,47.123,924,45.668,903,46.668c-3.469,0.165-10.414,5.549-12.723,3.37
	c-6.436,2.746-23.431,10.856-27.206,12.901c-12.638,6.845-31.419,20.801-36.861,47.129c-3.306,15.995,2.765,66.942,2.765,66.942
	s3.226-11.914,11.388-14.744c6.484-2.25,15.161,3.444,20.734,9.018c5.676,5.676,9.722,8.346,12.704,11.189
	c1.753,1.673,0.942,2.678,0.153,4.521c1.711-0.044,2.721-0.702,2.721-0.702s2.032,8.45,2.457,6.714
	c1.009-4.125,1.58-6.682,4.049-8.327c0.611-0.407,1.842-2.036,2.792-3.969c1.955-3.261,3.286-8.587,4.481-15.701
	c1.927-11.472,16.323-16.5,18.43-25.979c1.337-6.017-6.056-21.853-3.949-32.385c0.387-1.935,0.946-3.568,1.72-4.953
	c0.116,1.543,0.321,2.81,0.321,2.81c1.2-3.44,2.023-3.777,2.023-3.777c0.922,3.846,2.57,7.716,2.57,7.716
	c0.312-3.026,0.765-5.437,1.225-7.313c1.685,1.897,3.711,4.46,5.956,7.872c0,0-0.417-5.417-1.651-10.372
	c0,0,1.144-0.104,4.568,3.122c0,0-1.308-3.966-2.927-6.666c3.906-0.577,8.795-0.773,14.894-0.813
	c40.811-0.263,44.172,8.027,57.397,8.426c8.777,0.265,6.99-3.724,11.41-3.598c1.989,0.057,4.226,1.943,6.913,6.756
	c3.567-6.213,7.058-12.37,10.785-18.489c2.012-3.302,4.78-5.092,7.718-5.727C1024.932,75.957,1021.766,70.398,1017.376,65.819z"/>
</svg>
